<svg xmlns="http://www.w3.org/2000/svg" viewBox="0 0 142.328 66.021"><path fill="#FFF" d="M138.225 4.104V42.09c0 7.253-5.984 13.153-13.342 13.153H84.28c-4.89 0-9.51 1.774-13.116 5.02-3.605-3.245-8.225-5.02-13.117-5.02h-40.71c-7.296 0-13.233-5.9-13.233-13.152V4.105h134.12zM73.322 63.87c2.928-2.917 6.82-4.523 10.96-4.523h40.6c9.62 0 17.446-7.74 17.446-17.256V0H0v42.09c0 9.516 7.778 17.257 17.338 17.257h40.71c4.14 0 8.03 1.606 10.958 4.52l2.158 2.153 2.158-2.15z"/><path fill="#FFF" d="M122.61 21.4c0 1.282-1.005 2.203-2.29 2.203-1.284 0-2.29-.92-2.29-2.204 0-1.285 1.006-2.206 2.29-2.206 1.285 0 2.29.92 2.29 2.205m-4.27 17.95h3.963V25.28h-3.964v14.07zm-7.092-8.487l5.165 8.485h-4.3l-3.46-5.64-1.87 2.374v3.266h-3.938v-20.21h3.937v9.324c0 1.73-.195 3.46-.195 3.46h.083s.922-1.534 1.703-2.623l3.016-4.02h4.604l-4.746 5.583zm-12.394-.53c0-3.49-1.703-5.388-4.41-5.388-2.318 0-3.52 1.367-4.216 2.65h-.084l.195-2.315h-3.937v14.068h3.936V31c0-1.618.948-2.735 2.427-2.735 1.48 0 2.123.978 2.123 2.85v8.233h3.964v-9.016zm-16.218-8.934c0 1.282-1.006 2.203-2.29 2.203-1.283 0-2.287-.92-2.287-2.204 0-1.285 1.003-2.206 2.286-2.206 1.284 0 2.29.92 2.29 2.205m-4.27 17.95h3.963V25.28h-3.965v14.07zm-6.813-3.91c0-1.116-1.562-1.367-3.377-1.87-2.122-.56-4.773-1.62-4.773-4.298 0-2.652 2.54-4.327 5.555-4.327 2.792 0 5.36 1.34 6.448 3.21l-3.377 1.897c-.336-1.256-1.397-2.232-2.932-2.232-1.007 0-1.844.445-1.844 1.256 0 1.06 1.844 1.173 3.937 1.842 2.206.7 4.216 1.703 4.216 4.27 0 2.82-2.623 4.495-5.666 4.495-3.294 0-5.892-1.396-7.035-3.63l3.433-1.926c.448 1.536 1.677 2.68 3.547 2.68 1.086 0 1.868-.473 1.868-1.366M59.048 19.28h-3.965v16.19c0 1.45.312 2.508.937 3.168.623.66 1.613.99 2.973.99.464 0 .94-.05 1.424-.153.483-.102.874-.246 1.172-.432l.334-2.65c-.316.11-.59.19-.823.236-.232.047-.507.07-.822.07-.522 0-.74-.13-.936-.392-.195-.26-.293-.726-.293-1.396v-15.63zM45.87 27.792c-1.45 0-2.623 1.032-2.93 2.96h5.556c0-1.704-1.09-2.96-2.625-2.96m6.087 5.583h-9.1c.167 2.29 1.45 3.406 3.098 3.406 1.48 0 2.485-.977 2.708-2.316l3.322 1.87c-.978 1.786-3.1 3.35-6.03 3.35-3.936 0-6.81-2.735-6.81-7.37 0-4.577 2.93-7.368 6.726-7.368 3.77 0 6.283 2.68 6.283 6.504 0 1.143-.196 1.925-.196 1.925M31.83 39.35h4.104V20.03H31.83v7.65h-7.705v-7.65H20.02V39.35h4.105v-8.012h7.705v8.013z"/></svg>
